P2
4 4
20
0  0  0  0  
3  0  2  4  
0  1  3  4  
0  4  0  0  
